solid OpenSCAD_Model
  facet normal 0.980785 0.195091 0
    outer loop
      vertex 5 0 3
      vertex 4.6194 1.91342 0
      vertex 4.6194 1.91342 3
    endloop
  endfacet
  facet normal 0.980785 0.195091 0
    outer loop
      vertex 4.6194 1.91342 0
      vertex 5 0 3
      vertex 5 0 0
    endloop
  endfacet
  facet normal -0.980785 0.195091 0
    outer loop
      vertex -5 0 0
      vertex -4.6194 1.91342 3
      vertex -4.6194 1.91342 0
    endloop
  endfacet
  facet normal -0.980785 0.195091 0
    outer loop
      vertex -4.6194 1.91342 3
      vertex -5 0 0
      vertex -5 0 3
    endloop
  endfacet
  facet normal 0.195091 0.980785 -0
    outer loop
      vertex 1.91342 4.6194 0
      vertex 0 5 3
      vertex 1.91342 4.6194 3
    endloop
  endfacet
  facet normal 0.195091 0.980785 0
    outer loop
      vertex 0 5 3
      vertex 1.91342 4.6194 0
      vertex 0 5 0
    endloop
  endfacet
  facet normal 0.83147 0.55557 0
    outer loop
      vertex 4.6194 1.91342 3
      vertex 3.53553 3.53553 0
      vertex 3.53553 3.53553 3
    endloop
  endfacet
  facet normal 0.83147 0.55557 0
    outer loop
      vertex 3.53553 3.53553 0
      vertex 4.6194 1.91342 3
      vertex 4.6194 1.91342 0
    endloop
  endfacet
  facet normal -0.195091 -0.980785 0
    outer loop
      vertex -1.91342 -4.6194 0
      vertex 0 -5 3
      vertex -1.91342 -4.6194 3
    endloop
  endfacet
  facet normal -0.195091 -0.980785 -0
    outer loop
      vertex 0 -5 3
      vertex -1.91342 -4.6194 0
      vertex 0 -5 0
    endloop
  endfacet
  facet normal 0.195091 -0.980785 0
    outer loop
      vertex 0 -5 0
      vertex 1.91342 -4.6194 3
      vertex 0 -5 3
    endloop
  endfacet
  facet normal 0.195091 -0.980785 0
    outer loop
      vertex 1.91342 -4.6194 3
      vertex 0 -5 0
      vertex 1.91342 -4.6194 0
    endloop
  endfacet
  facet normal 0 0 -1
    outer loop
      vertex 3 0 0
      vertex 5 0 0
      vertex 4.6194 -1.91342 0
    endloop
  endfacet
  facet normal 0 0 -1
    outer loop
      vertex 2.42705 -1.76336 0
      vertex 4.6194 -1.91342 0
      vertex 3.53553 -3.53553 0
    endloop
  endfacet
  facet normal 0 0 -1
    outer loop
      vertex 5 0 0
      vertex 3 0 0
      vertex 4.6194 1.91342 0
    endloop
  endfacet
  facet normal 0 0 -1
    outer loop
      vertex 2.42705 1.76336 0
      vertex 4.6194 1.91342 0
      vertex 3 0 0
    endloop
  endfacet
  facet normal 0 0 -1
    outer loop
      vertex 4.6194 -1.91342 0
      vertex 2.42705 -1.76336 0
      vertex 3 0 0
    endloop
  endfacet
  facet normal 0 0 -1
    outer loop
      vertex 0.927051 -2.85317 0
      vertex 3.53553 -3.53553 0
      vertex 1.91342 -4.6194 0
    endloop
  endfacet
  facet normal 0 0 -1
    outer loop
      vertex 3.53553 -3.53553 0
      vertex 0.927051 -2.85317 0
      vertex 2.42705 -1.76336 0
    endloop
  endfacet
  facet normal 0 0 -1
    outer loop
      vertex 0 -5 0
      vertex 0.927051 -2.85317 0
      vertex 1.91342 -4.6194 0
    endloop
  endfacet
  facet normal 0 0 -1
    outer loop
      vertex 0 -5 0
      vertex -0.927051 -2.85317 0
      vertex 0.927051 -2.85317 0
    endloop
  endfacet
  facet normal 0 0 -1
    outer loop
      vertex -1.91342 -4.6194 0
      vertex -0.927051 -2.85317 0
      vertex 0 -5 0
    endloop
  endfacet
  facet normal 0 0 -1
    outer loop
      vertex -3.53553 -3.53553 0
      vertex -0.927051 -2.85317 0
      vertex -1.91342 -4.6194 0
    endloop
  endfacet
  facet normal -0 0 -1
    outer loop
      vertex -0.927051 -2.85317 0
      vertex -3.53553 -3.53553 0
      vertex -2.42705 -1.76336 0
    endloop
  endfacet
  facet normal 0 0 -1
    outer loop
      vertex -4.6194 -1.91342 0
      vertex -2.42705 -1.76336 0
      vertex -3.53553 -3.53553 0
    endloop
  endfacet
  facet normal -0 0 -1
    outer loop
      vertex 4.6194 1.91342 0
      vertex 2.42705 1.76336 0
      vertex 3.53553 3.53553 0
    endloop
  endfacet
  facet normal 0 0 -1
    outer loop
      vertex 0.927051 2.85317 0
      vertex 3.53553 3.53553 0
      vertex 2.42705 1.76336 0
    endloop
  endfacet
  facet normal -0 0 -1
    outer loop
      vertex 3.53553 3.53553 0
      vertex 0.927051 2.85317 0
      vertex 1.91342 4.6194 0
    endloop
  endfacet
  facet normal 0 0 -1
    outer loop
      vertex 0.927051 2.85317 0
      vertex 0 5 0
      vertex 1.91342 4.6194 0
    endloop
  endfacet
  facet normal 0 0 -1
    outer loop
      vertex -0.927051 2.85317 0
      vertex 0 5 0
      vertex 0.927051 2.85317 0
    endloop
  endfacet
  facet normal 0 0 -1
    outer loop
      vertex -0.927051 2.85317 0
      vertex -1.91342 4.6194 0
      vertex 0 5 0
    endloop
  endfacet
  facet normal 0 0 -1
    outer loop
      vertex -3.53553 3.53553 0
      vertex -0.927051 2.85317 0
      vertex -2.42705 1.76336 0
    endloop
  endfacet
  facet normal 0 0 -1
    outer loop
      vertex -4.6194 1.91342 0
      vertex -2.42705 1.76336 0
      vertex -3 0 0
    endloop
  endfacet
  facet normal 0 0 -1
    outer loop
      vertex -0.927051 2.85317 0
      vertex -3.53553 3.53553 0
      vertex -1.91342 4.6194 0
    endloop
  endfacet
  facet normal -0 0 -1
    outer loop
      vertex -2.42705 -1.76336 0
      vertex -4.6194 -1.91342 0
      vertex -3 0 0
    endloop
  endfacet
  facet normal 0 0 -1
    outer loop
      vertex -5 0 0
      vertex -3 0 0
      vertex -4.6194 -1.91342 0
    endloop
  endfacet
  facet normal 0 0 -1
    outer loop
      vertex -2.42705 1.76336 0
      vertex -4.6194 1.91342 0
      vertex -3.53553 3.53553 0
    endloop
  endfacet
  facet normal 0 0 -1
    outer loop
      vertex -3 0 0
      vertex -5 0 0
      vertex -4.6194 1.91342 0
    endloop
  endfacet
  facet normal 0.55557 0.83147 -0
    outer loop
      vertex 3.53553 3.53553 0
      vertex 1.91342 4.6194 3
      vertex 3.53553 3.53553 3
    endloop
  endfacet
  facet normal 0.55557 0.83147 0
    outer loop
      vertex 1.91342 4.6194 3
      vertex 3.53553 3.53553 0
      vertex 1.91342 4.6194 0
    endloop
  endfacet
  facet normal -0.55557 0.83147 0
    outer loop
      vertex -1.91342 4.6194 0
      vertex -3.53553 3.53553 3
      vertex -1.91342 4.6194 3
    endloop
  endfacet
  facet normal -0.55557 0.83147 0
    outer loop
      vertex -3.53553 3.53553 3
      vertex -1.91342 4.6194 0
      vertex -3.53553 3.53553 0
    endloop
  endfacet
  facet normal -0.83147 0.55557 0
    outer loop
      vertex -4.6194 1.91342 0
      vertex -3.53553 3.53553 3
      vertex -3.53553 3.53553 0
    endloop
  endfacet
  facet normal -0.83147 0.55557 0
    outer loop
      vertex -3.53553 3.53553 3
      vertex -4.6194 1.91342 0
      vertex -4.6194 1.91342 3
    endloop
  endfacet
  facet normal 0 0 1
    outer loop
      vertex 4.6194 1.91342 3
      vertex 4.6194 -1.91342 3
      vertex 5 0 3
    endloop
  endfacet
  facet normal 0 0 1
    outer loop
      vertex 3.53553 3.53553 3
      vertex 4.6194 -1.91342 3
      vertex 4.6194 1.91342 3
    endloop
  endfacet
  facet normal 0 0 1
    outer loop
      vertex 3.53553 3.53553 3
      vertex 3.53553 -3.53553 3
      vertex 4.6194 -1.91342 3
    endloop
  endfacet
  facet normal 0 0 1
    outer loop
      vertex 1.91342 4.6194 3
      vertex 3.53553 -3.53553 3
      vertex 3.53553 3.53553 3
    endloop
  endfacet
  facet normal 0 0 1
    outer loop
      vertex 1.91342 4.6194 3
      vertex 1.91342 -4.6194 3
      vertex 3.53553 -3.53553 3
    endloop
  endfacet
  facet normal 0 0 1
    outer loop
      vertex 0 5 3
      vertex 1.91342 -4.6194 3
      vertex 1.91342 4.6194 3
    endloop
  endfacet
  facet normal 0 0 1
    outer loop
      vertex 0 5 3
      vertex 0 -5 3
      vertex 1.91342 -4.6194 3
    endloop
  endfacet
  facet normal -0 0 1
    outer loop
      vertex -1.91342 4.6194 3
      vertex 0 -5 3
      vertex 0 5 3
    endloop
  endfacet
  facet normal 0 0 1
    outer loop
      vertex -1.91342 4.6194 3
      vertex -1.91342 -4.6194 3
      vertex 0 -5 3
    endloop
  endfacet
  facet normal -0 0 1
    outer loop
      vertex -3.53553 3.53553 3
      vertex -1.91342 -4.6194 3
      vertex -1.91342 4.6194 3
    endloop
  endfacet
  facet normal 0 0 1
    outer loop
      vertex -3.53553 3.53553 3
      vertex -3.53553 -3.53553 3
      vertex -1.91342 -4.6194 3
    endloop
  endfacet
  facet normal -0 0 1
    outer loop
      vertex -4.6194 1.91342 3
      vertex -3.53553 -3.53553 3
      vertex -3.53553 3.53553 3
    endloop
  endfacet
  facet normal 0 0 1
    outer loop
      vertex -4.6194 1.91342 3
      vertex -4.6194 -1.91342 3
      vertex -3.53553 -3.53553 3
    endloop
  endfacet
  facet normal 0 -0 1
    outer loop
      vertex -4.6194 -1.91342 3
      vertex -4.6194 1.91342 3
      vertex -5 0 3
    endloop
  endfacet
  facet normal -0.195091 0.980785 0
    outer loop
      vertex 0 5 0
      vertex -1.91342 4.6194 3
      vertex 0 5 3
    endloop
  endfacet
  facet normal -0.195091 0.980785 0
    outer loop
      vertex -1.91342 4.6194 3
      vertex 0 5 0
      vertex -1.91342 4.6194 0
    endloop
  endfacet
  facet normal -0.55557 -0.83147 0
    outer loop
      vertex -3.53553 -3.53553 0
      vertex -1.91342 -4.6194 3
      vertex -3.53553 -3.53553 3
    endloop
  endfacet
  facet normal -0.55557 -0.83147 -0
    outer loop
      vertex -1.91342 -4.6194 3
      vertex -3.53553 -3.53553 0
      vertex -1.91342 -4.6194 0
    endloop
  endfacet
  facet normal -0.980785 -0.195091 0
    outer loop
      vertex -4.6194 -1.91342 0
      vertex -5 0 3
      vertex -5 0 0
    endloop
  endfacet
  facet normal -0.980785 -0.195091 0
    outer loop
      vertex -5 0 3
      vertex -4.6194 -1.91342 0
      vertex -4.6194 -1.91342 3
    endloop
  endfacet
  facet normal 0.55557 -0.83147 0
    outer loop
      vertex 1.91342 -4.6194 0
      vertex 3.53553 -3.53553 3
      vertex 1.91342 -4.6194 3
    endloop
  endfacet
  facet normal 0.55557 -0.83147 0
    outer loop
      vertex 3.53553 -3.53553 3
      vertex 1.91342 -4.6194 0
      vertex 3.53553 -3.53553 0
    endloop
  endfacet
  facet normal 0.83147 -0.55557 0
    outer loop
      vertex 3.53553 -3.53553 3
      vertex 4.6194 -1.91342 0
      vertex 4.6194 -1.91342 3
    endloop
  endfacet
  facet normal 0.83147 -0.55557 0
    outer loop
      vertex 4.6194 -1.91342 0
      vertex 3.53553 -3.53553 3
      vertex 3.53553 -3.53553 0
    endloop
  endfacet
  facet normal -0.83147 -0.55557 0
    outer loop
      vertex -3.53553 -3.53553 0
      vertex -4.6194 -1.91342 3
      vertex -4.6194 -1.91342 0
    endloop
  endfacet
  facet normal -0.83147 -0.55557 0
    outer loop
      vertex -4.6194 -1.91342 3
      vertex -3.53553 -3.53553 0
      vertex -3.53553 -3.53553 3
    endloop
  endfacet
  facet normal 0.980785 -0.195091 0
    outer loop
      vertex 4.6194 -1.91342 3
      vertex 5 0 0
      vertex 5 0 3
    endloop
  endfacet
  facet normal 0.980785 -0.195091 0
    outer loop
      vertex 5 0 0
      vertex 4.6194 -1.91342 3
      vertex 4.6194 -1.91342 0
    endloop
  endfacet
  facet normal -0.356822 -0.491124 -0.794654
    outer loop
      vertex 0.75 2.30826 1.76336
      vertex 1.96352 1.42658 1.76336
      vertex 0.286474 0.881678 2.85317
    endloop
  endfacet
  facet normal -0.561583 0.772953 -0.295242
    outer loop
      vertex 1.96352 -1.42658 1.76336
      vertex 0.927051 -2.85317 0
      vertex 0.749999 -2.30826 1.76336
    endloop
  endfacet
  facet normal -0.908661 0.295242 -0.295242
    outer loop
      vertex 2.42705 0 1.76336
      vertex 3 0 0
      vertex 2.42705 -1.76336 0
    endloop
  endfacet
  facet normal 0 -0.607062 -0.794654
    outer loop
      vertex -0.286474 0.881678 2.85317
      vertex 0.75 2.30826 1.76336
      vertex 0.286474 0.881678 2.85317
    endloop
  endfacet
  facet normal -0 -0.607062 -0.794654
    outer loop
      vertex 0.75 2.30826 1.76336
      vertex -0.286474 0.881678 2.85317
      vertex -0.749999 2.30826 1.76336
    endloop
  endfacet
  facet normal -0.561583 -0.772953 -0.295242
    outer loop
      vertex 2.42705 1.76336 0
      vertex 1.96352 1.42658 1.76336
      vertex 0.927051 2.85317 0
    endloop
  endfacet
  facet normal 0.908661 -0.295242 -0.295242
    outer loop
      vertex -2.42705 1.76336 0
      vertex -1.96352 1.42658 1.76336
      vertex -2.42705 0 1.76336
    endloop
  endfacet
  facet normal -0.356822 -0.491123 -0.794654
    outer loop
      vertex 1.96352 1.42658 1.76336
      vertex 0.749999 0.544907 2.85317
      vertex 0.286474 0.881678 2.85317
    endloop
  endfacet
  facet normal -0.57735 -0.187593 -0.794655
    outer loop
      vertex 1.96352 1.42658 1.76336
      vertex 0.927051 0 2.85317
      vertex 0.749999 0.544907 2.85317
    endloop
  endfacet
  facet normal 0.561583 0.772953 -0.295242
    outer loop
      vertex -0.75 -2.30826 1.76336
      vertex -0.927051 -2.85317 0
      vertex -1.96352 -1.42658 1.76336
    endloop
  endfacet
  facet normal -0.908661 -0.295242 -0.295242
    outer loop
      vertex 2.42705 1.76336 0
      vertex 3 0 0
      vertex 2.42705 0 1.76336
    endloop
  endfacet
  facet normal -0.908661 -0.295242 -0.295242
    outer loop
      vertex 2.42705 1.76336 0
      vertex 2.42705 0 1.76336
      vertex 1.96352 1.42658 1.76336
    endloop
  endfacet
  facet normal -0.57735 -0.187593 -0.794654
    outer loop
      vertex 1.96352 1.42658 1.76336
      vertex 2.42705 0 1.76336
      vertex 0.927051 0 2.85317
    endloop
  endfacet
  facet normal -0.561583 -0.772953 -0.295242
    outer loop
      vertex 0.927051 2.85317 0
      vertex 1.96352 1.42658 1.76336
      vertex 0.75 2.30826 1.76336
    endloop
  endfacet
  facet normal 0.561583 0.772953 -0.295242
    outer loop
      vertex -1.96352 -1.42658 1.76336
      vertex -0.927051 -2.85317 0
      vertex -2.42705 -1.76336 0
    endloop
  endfacet
  facet normal 0.908661 0.295242 -0.295242
    outer loop
      vertex -2.42705 0 1.76336
      vertex -1.96352 -1.42658 1.76336
      vertex -2.42705 -1.76336 0
    endloop
  endfacet
  facet normal 0 -0.955422 -0.295242
    outer loop
      vertex -0.927051 2.85317 0
      vertex 0.75 2.30826 1.76336
      vertex -0.749999 2.30826 1.76336
    endloop
  endfacet
  facet normal 0 -0.955422 -0.295242
    outer loop
      vertex 0.75 2.30826 1.76336
      vertex -0.927051 2.85317 0
      vertex 0.927051 2.85317 0
    endloop
  endfacet
  facet normal 0 0.955422 -0.295242
    outer loop
      vertex 0.927051 -2.85317 0
      vertex -0.75 -2.30826 1.76336
      vertex 0.749999 -2.30826 1.76336
    endloop
  endfacet
  facet normal 0 0.955422 -0.295242
    outer loop
      vertex -0.75 -2.30826 1.76336
      vertex 0.927051 -2.85317 0
      vertex -0.927051 -2.85317 0
    endloop
  endfacet
  facet normal 0.57735 0.187593 -0.794655
    outer loop
      vertex -0.927051 0 2.85317
      vertex -0.749999 -0.544907 2.85317
      vertex -1.96352 -1.42658 1.76336
    endloop
  endfacet
  facet normal -0.356822 0.491124 -0.794654
    outer loop
      vertex 1.96352 -1.42658 1.76336
      vertex 0.749999 -2.30826 1.76336
      vertex 0.286474 -0.881678 2.85317
    endloop
  endfacet
  facet normal -0.561583 0.772953 -0.295242
    outer loop
      vertex 1.96352 -1.42658 1.76336
      vertex 2.42705 -1.76336 0
      vertex 0.927051 -2.85317 0
    endloop
  endfacet
  facet normal -0.908661 0.295242 -0.295242
    outer loop
      vertex 2.42705 0 1.76336
      vertex 2.42705 -1.76336 0
      vertex 1.96352 -1.42658 1.76336
    endloop
  endfacet
  facet normal -0.57735 0.187593 -0.794654
    outer loop
      vertex 2.42705 0 1.76336
      vertex 1.96352 -1.42658 1.76336
      vertex 0.927051 0 2.85317
    endloop
  endfacet
  facet normal 0.561583 -0.772953 -0.295242
    outer loop
      vertex -0.927051 2.85317 0
      vertex -0.749999 2.30826 1.76336
      vertex -1.96352 1.42658 1.76336
    endloop
  endfacet
  facet normal 0.356822 -0.491124 -0.794654
    outer loop
      vertex -0.749999 2.30826 1.76336
      vertex -0.286474 0.881678 2.85317
      vertex -1.96352 1.42658 1.76336
    endloop
  endfacet
  facet normal 0.57735 -0.187593 -0.794655
    outer loop
      vertex -0.749999 0.544907 2.85317
      vertex -0.927051 0 2.85317
      vertex -1.96352 1.42658 1.76336
    endloop
  endfacet
  facet normal 0.561583 -0.772953 -0.295242
    outer loop
      vertex -0.927051 2.85317 0
      vertex -1.96352 1.42658 1.76336
      vertex -2.42705 1.76336 0
    endloop
  endfacet
  facet normal 0.908661 -0.295242 -0.295242
    outer loop
      vertex -2.42705 1.76336 0
      vertex -2.42705 0 1.76336
      vertex -3 0 0
    endloop
  endfacet
  facet normal 0.908661 0.295242 -0.295242
    outer loop
      vertex -2.42705 0 1.76336
      vertex -2.42705 -1.76336 0
      vertex -3 0 0
    endloop
  endfacet
  facet normal 0 0 -1
    outer loop
      vertex 0.749999 -0.544907 2.85317
      vertex 0.749999 0.544907 2.85317
      vertex 0.927051 0 2.85317
    endloop
  endfacet
  facet normal 0 0 -1
    outer loop
      vertex 0.286474 -0.881678 2.85317
      vertex 0.749999 0.544907 2.85317
      vertex 0.749999 -0.544907 2.85317
    endloop
  endfacet
  facet normal 0 0 -1
    outer loop
      vertex 0.286474 -0.881678 2.85317
      vertex 0.286474 0.881678 2.85317
      vertex 0.749999 0.544907 2.85317
    endloop
  endfacet
  facet normal 0 0 -1
    outer loop
      vertex -0.286474 -0.881678 2.85317
      vertex 0.286474 0.881678 2.85317
      vertex 0.286474 -0.881678 2.85317
    endloop
  endfacet
  facet normal 0 0 -1
    outer loop
      vertex -0.286474 -0.881678 2.85317
      vertex -0.286474 0.881678 2.85317
      vertex 0.286474 0.881678 2.85317
    endloop
  endfacet
  facet normal 0 0 -1
    outer loop
      vertex -0.749999 -0.544907 2.85317
      vertex -0.286474 0.881678 2.85317
      vertex -0.286474 -0.881678 2.85317
    endloop
  endfacet
  facet normal 0 0 -1
    outer loop
      vertex -0.749999 -0.544907 2.85317
      vertex -0.749999 0.544907 2.85317
      vertex -0.286474 0.881678 2.85317
    endloop
  endfacet
  facet normal 0 -0 -1
    outer loop
      vertex -0.749999 0.544907 2.85317
      vertex -0.749999 -0.544907 2.85317
      vertex -0.927051 0 2.85317
    endloop
  endfacet
  facet normal 0.356822 0.491124 -0.794654
    outer loop
      vertex -0.286474 -0.881678 2.85317
      vertex -0.75 -2.30826 1.76336
      vertex -1.96352 -1.42658 1.76336
    endloop
  endfacet
  facet normal 0 0.607062 -0.794654
    outer loop
      vertex 0.749999 -2.30826 1.76336
      vertex -0.286474 -0.881678 2.85317
      vertex 0.286474 -0.881678 2.85317
    endloop
  endfacet
  facet normal 0 0.607062 -0.794654
    outer loop
      vertex -0.286474 -0.881678 2.85317
      vertex 0.749999 -2.30826 1.76336
      vertex -0.75 -2.30826 1.76336
    endloop
  endfacet
  facet normal -0.356822 0.491123 -0.794654
    outer loop
      vertex 0.749999 -0.544907 2.85317
      vertex 1.96352 -1.42658 1.76336
      vertex 0.286474 -0.881678 2.85317
    endloop
  endfacet
  facet normal -0.57735 0.187593 -0.794655
    outer loop
      vertex 0.927051 0 2.85317
      vertex 1.96352 -1.42658 1.76336
      vertex 0.749999 -0.544907 2.85317
    endloop
  endfacet
  facet normal 0.57735 -0.187593 -0.794654
    outer loop
      vertex -1.96352 1.42658 1.76336
      vertex -0.927051 0 2.85317
      vertex -2.42705 0 1.76336
    endloop
  endfacet
  facet normal 0.57735 0.187593 -0.794654
    outer loop
      vertex -0.927051 0 2.85317
      vertex -1.96352 -1.42658 1.76336
      vertex -2.42705 0 1.76336
    endloop
  endfacet
  facet normal 0.356822 -0.491123 -0.794654
    outer loop
      vertex -0.286474 0.881678 2.85317
      vertex -0.749999 0.544907 2.85317
      vertex -1.96352 1.42658 1.76336
    endloop
  endfacet
  facet normal 0.356822 0.491123 -0.794654
    outer loop
      vertex -0.749999 -0.544907 2.85317
      vertex -0.286474 -0.881678 2.85317
      vertex -1.96352 -1.42658 1.76336
    endloop
  endfacet
endsolid OpenSCAD_Model
