solid OpenSCAD_Model
  facet normal -1 0 0
    outer loop
      vertex 2 4 0
      vertex 2 6 5
      vertex 2 6 0
    endloop
  endfacet
  facet normal -1 -0 0
    outer loop
      vertex 2 6 5
      vertex 2 4 0
      vertex 2 4 5
    endloop
  endfacet
  facet normal 1 -0 0
    outer loop
      vertex 6 4 5
      vertex 6 6 0
      vertex 6 6 5
    endloop
  endfacet
  facet normal 1 0 0
    outer loop
      vertex 6 6 0
      vertex 6 4 5
      vertex 6 4 0
    endloop
  endfacet
  facet normal 0 0 -1
    outer loop
      vertex 2 4 0
      vertex 6 6 0
      vertex 6 4 0
    endloop
  endfacet
  facet normal -0 0 -1
    outer loop
      vertex 6 6 0
      vertex 2 4 0
      vertex 2 6 0
    endloop
  endfacet
  facet normal 0 1 -0
    outer loop
      vertex 6 6 0
      vertex 2 6 5
      vertex 6 6 5
    endloop
  endfacet
  facet normal 0 1 0
    outer loop
      vertex 2 6 5
      vertex 6 6 0
      vertex 2 6 0
    endloop
  endfacet
  facet normal 0 -1 0
    outer loop
      vertex 2 4 0
      vertex 6 4 5
      vertex 2 4 5
    endloop
  endfacet
  facet normal 0 -1 -0
    outer loop
      vertex 6 4 5
      vertex 2 4 0
      vertex 6 4 0
    endloop
  endfacet
  facet normal -0 0 1
    outer loop
      vertex 2 6 5
      vertex 6 4 5
      vertex 6 6 5
    endloop
  endfacet
  facet normal 0 0 1
    outer loop
      vertex 6 4 5
      vertex 2 6 5
      vertex 2 4 5
    endloop
  endfacet
  facet normal -1 0 0
    outer loop
      vertex 2 0 0
      vertex 2 3 5
      vertex 2 3 0
    endloop
  endfacet
  facet normal -1 -0 0
    outer loop
      vertex 2 3 5
      vertex 2 0 0
      vertex 2 0 5
    endloop
  endfacet
  facet normal 1 -0 0
    outer loop
      vertex 6 0 5
      vertex 6 3 0
      vertex 6 3 5
    endloop
  endfacet
  facet normal 1 0 0
    outer loop
      vertex 6 3 0
      vertex 6 0 5
      vertex 6 0 0
    endloop
  endfacet
  facet normal 0 0 -1
    outer loop
      vertex 2 0 0
      vertex 6 3 0
      vertex 6 0 0
    endloop
  endfacet
  facet normal -0 0 -1
    outer loop
      vertex 6 3 0
      vertex 2 0 0
      vertex 2 3 0
    endloop
  endfacet
  facet normal 0 -1 0
    outer loop
      vertex 2 0 0
      vertex 6 0 5
      vertex 2 0 5
    endloop
  endfacet
  facet normal 0 -1 -0
    outer loop
      vertex 6 0 5
      vertex 2 0 0
      vertex 6 0 0
    endloop
  endfacet
  facet normal -0 0 1
    outer loop
      vertex 2 3 5
      vertex 6 0 5
      vertex 6 3 5
    endloop
  endfacet
  facet normal 0 0 1
    outer loop
      vertex 6 0 5
      vertex 2 3 5
      vertex 2 0 5
    endloop
  endfacet
  facet normal 0 1 -0
    outer loop
      vertex 6 3 0
      vertex 2 3 5
      vertex 6 3 5
    endloop
  endfacet
  facet normal 0 1 0
    outer loop
      vertex 2 3 5
      vertex 6 3 0
      vertex 2 3 0
    endloop
  endfacet
  facet normal 0 0 -1
    outer loop
      vertex 2 -4 0
      vertex 6 -1 0
      vertex 6 -4 0
    endloop
  endfacet
  facet normal -0 0 -1
    outer loop
      vertex 6 -1 0
      vertex 2 -4 0
      vertex 2 -1 0
    endloop
  endfacet
  facet normal 0 1 -0
    outer loop
      vertex 6 -1 0
      vertex 2 -1 5
      vertex 6 -1 5
    endloop
  endfacet
  facet normal 0 1 0
    outer loop
      vertex 2 -1 5
      vertex 6 -1 0
      vertex 2 -1 0
    endloop
  endfacet
  facet normal -0 0 1
    outer loop
      vertex 2 -1 5
      vertex 6 -4 5
      vertex 6 -1 5
    endloop
  endfacet
  facet normal 0 0 1
    outer loop
      vertex 6 -4 5
      vertex 2 -1 5
      vertex 2 -4 5
    endloop
  endfacet
  facet normal 1 -0 0
    outer loop
      vertex 6 -4 5
      vertex 6 -1 0
      vertex 6 -1 5
    endloop
  endfacet
  facet normal 1 0 0
    outer loop
      vertex 6 -1 0
      vertex 6 -4 5
      vertex 6 -4 0
    endloop
  endfacet
  facet normal 0 -1 0
    outer loop
      vertex 2 -4 0
      vertex 6 -4 5
      vertex 2 -4 5
    endloop
  endfacet
  facet normal 0 -1 -0
    outer loop
      vertex 6 -4 5
      vertex 2 -4 0
      vertex 6 -4 0
    endloop
  endfacet
  facet normal -1 0 0
    outer loop
      vertex 2 -4 0
      vertex 2 -1 5
      vertex 2 -1 0
    endloop
  endfacet
  facet normal -1 -0 0
    outer loop
      vertex 2 -1 5
      vertex 2 -4 0
      vertex 2 -4 5
    endloop
  endfacet
  facet normal 0 0 -1
    outer loop
      vertex 2 -8 0
      vertex 6 -5 0
      vertex 6 -8 0
    endloop
  endfacet
  facet normal -0 0 -1
    outer loop
      vertex 6 -5 0
      vertex 2 -8 0
      vertex 2 -5 0
    endloop
  endfacet
  facet normal 0 1 -0
    outer loop
      vertex 6 -5 0
      vertex 2 -5 5
      vertex 6 -5 5
    endloop
  endfacet
  facet normal 0 1 0
    outer loop
      vertex 2 -5 5
      vertex 6 -5 0
      vertex 2 -5 0
    endloop
  endfacet
  facet normal -0 0 1
    outer loop
      vertex 2 -5 5
      vertex 6 -8 5
      vertex 6 -5 5
    endloop
  endfacet
  facet normal 0 0 1
    outer loop
      vertex 6 -8 5
      vertex 2 -5 5
      vertex 2 -8 5
    endloop
  endfacet
  facet normal 1 -0 0
    outer loop
      vertex 6 -8 5
      vertex 6 -5 0
      vertex 6 -5 5
    endloop
  endfacet
  facet normal 1 0 0
    outer loop
      vertex 6 -5 0
      vertex 6 -8 5
      vertex 6 -8 0
    endloop
  endfacet
  facet normal 0 -1 0
    outer loop
      vertex 2 -8 0
      vertex 6 -8 5
      vertex 2 -8 5
    endloop
  endfacet
  facet normal 0 -1 -0
    outer loop
      vertex 6 -8 5
      vertex 2 -8 0
      vertex 6 -8 0
    endloop
  endfacet
  facet normal -1 0 0
    outer loop
      vertex 2 -8 0
      vertex 2 -5 5
      vertex 2 -5 0
    endloop
  endfacet
  facet normal -1 -0 0
    outer loop
      vertex 2 -5 5
      vertex 2 -8 0
      vertex 2 -8 5
    endloop
  endfacet
endsolid OpenSCAD_Model
